<svg xmlns="http://www.w3.org/2000/svg" width="266.001" height="265.237" viewBox="0 0 266.001 265.237"><g transform="translate(0 0)"><path d="M767.05,613.464c-3.292,6.835-9.359,11.919-15.718,16.053a99.24,99.24,0,0,1-22.292,10.791c-1.076.371-2.163.716-3.255,1.045H681.624c-.308-.334-.6-.685-.878-1.045a18.445,18.445,0,0,1-3.977-13.4c.747-6.109,5.388-11.721,11.4-13.017s12.87,2.289,14.7,8.167c1-11.329,2.163-23.128,8.183-32.774a34.72,34.72,0,0,1,25.129-16.1,31.645,31.645,0,0,1,17.495,3.2c.5.251.988.512,1.468.784a29.27,29.27,0,0,1,8.434,7.2C769.955,592.447,771.518,604.189,767.05,613.464Z" transform="translate(-503.597 -376.116)" fill="#d2d4da"/><path d="M780.688,580.89a165.689,165.689,0,0,0-47.322,62.418c-.152.345-.3.7-.45,1.045h-2.08c.146-.35.293-.7.444-1.045,2.012-4.7,4.233-9.322,6.673-13.821A168.183,168.183,0,0,1,756.2,602.492a165.626,165.626,0,0,1,23.128-22.966,1.012,1.012,0,0,1,.219-.136,1.062,1.062,0,0,1,1.468.784A.772.772,0,0,1,780.688,580.89Z" transform="translate(-529.467 -379.117)" fill="#f3f4f8"/><path d="M500.42,467.769a4.963,4.963,0,0,0-.629-7.584l-2.506-16.523L486.99,446.9l5.64,14.741a4.99,4.99,0,0,0,7.79,6.126Z" transform="translate(-413.043 -314.356)" fill="#ffb8b8"/><path d="M486.238,411.642l-6.35-29.658a16.983,16.983,0,0,1,4.85-15.882c8.129-7.833,18.576-17.707,22.185-20.261a18.606,18.606,0,0,1,11.641-3.436l.087.01,5.463,5.163-11.9,19.59-18.065,11.319,2.01,29.069Z" transform="translate(-409.465 -266.001)" fill="#009eaa"/><rect width="30.83" height="4.18" rx="2.09" transform="translate(70.272 105.337)" fill="#ccc"/><rect width="30.83" height="4.18" rx="2.09" transform="translate(70.272 150.799)" fill="#ccc"/><path d="M496.829,558.124a1.045,1.045,0,0,1-1.041-.953L482.465,400.929a1.045,1.045,0,1,1,2.082-.185L496.814,545.1l11.918-144.352a1.045,1.045,0,1,1,2.083.18L497.87,557.169a1.045,1.045,0,0,1-1.04.955Z" transform="translate(-410.88 -293.409)" fill="#ccc"/><circle cx="13.711" cy="13.711" r="13.711" transform="translate(102.146 42.728)" fill="#ffb8b8"/><path d="M137.558,468.808l-6.52-2.078,4.913-26.141,9.624,3.067Z" transform="translate(-62.564 -210.36)" fill="#ffb8b8"/><path d="M469.118,690l-20.991-6.691.173-.545a8.271,8.271,0,0,1,10.38-5.362l13.121,4.182Z" transform="translate(-394.487 -425.769)" fill="#2f2e41"/><path d="M225.076,470.212h-6.844l-3.257-26.4h10.1Z" transform="translate(-102.64 -211.899)" fill="#ffb8b8"/><path d="M541.926,695.087h20.987V687.3H549.664a7.747,7.747,0,0,0-7.738,7.739Z" transform="translate(-439.272 -430.68)" fill="#2f2e41"/><path d="M529.323,566.9l-2.31-.345c-7.006-1.044-7.425-1.106-8.537-1.595-.568-.25-.608-4.02-.267-25.216.25-15.559.562-34.922-.043-45.317a1.829,1.829,0,0,0-3.5-.617c-5.213,12.038-13.958,38.977-19.746,56.8-2.013,6.2-3.6,11.1-4.609,14.034a2.364,2.364,0,0,1-2.8,1.514c-4.763-1.191-4.444-1.7-11.227-3.451a2.346,2.346,0,0,1-1.715-2.76c1.227-5.786,23.679-99.6,25.4-108.515a2.352,2.352,0,0,1,2.772-1.866c5.055,1.019,8.13,2.1,13.126,3.144,5.39,1.128,10.964,2.294,16.4,3.382h0a2.332,2.332,0,0,1,1.369.839c1.345,1.7,3.34,2.653,5.452,3.662,1.424.681-1.8.619-.563,1.6,5.022,3.975-2.2,84.7-6.563,102.93a2.359,2.359,0,0,1-2.638,1.772Z" transform="translate(-407.087 -317.154)" fill="#2f2e41"/><path d="M558.951,295.711c-.8-3.4,3.246-10.705,2.446-14.1-.542-2.3-5.951-.737-7.213-2.735a7.255,7.255,0,0,0-5.74-3.643c-2.716-.03-5.389,1.984-7.962,1.114-2.6-.881-3.433-4.443-2.283-6.937s3.628-4.083,6.076-5.329c4.169-2.121,9.022-3.669,13.484-2.266,2.7.848,4.952,2.686,7.135,4.484a24.863,24.863,0,0,1,5.4,5.484c2.724,4.251,2.56,9.978.232,14.458a21.733,21.733,0,0,1-11.245,9.676" transform="translate(-437.251 -227.274)" fill="#2f2e41"/><path d="M513.693,411.043c1.48-2.472,3.727-14.055,6.5-33.5,1.886-13.272,3.53-26.758,4.345-33.646a3.312,3.312,0,0,1,1.86-2.613q.794-.383,1.578-.725a36.17,36.17,0,0,1,38.586,5.421l.061.058.016.083c.029.153,2.861,15.414-2.939,25.725-5.721,10.173-5.788,37.115-5.788,37.386v.346l-.333-.095c-8.9-2.543-43.28,1.906-43.626,1.951l-.535.07Z" transform="translate(-425.66 -263.562)" fill="#009eaa"/><rect width="30.83" height="4.18" rx="2.09" transform="translate(111.031 112.13)" fill="#ccc"/><rect width="30.83" height="4.18" rx="2.09" transform="translate(111.031 157.592)" fill="#ccc"/><path d="M574.829,564.853a1.045,1.045,0,0,1-1.041-.953L560.465,413.929a1.045,1.045,0,0,1,2.082-.185l12.267,138.084,11.918-138.081a1.045,1.045,0,1,1,2.083.18L575.87,563.9a1.045,1.045,0,0,1-1.04.955Z" transform="translate(-448.121 -299.616)" fill="#ccc"/><path d="M571.384,482.124a4.963,4.963,0,0,1,4.649-6.025l11.082-12.509L594,471.9l-12.744,9.31a4.99,4.99,0,0,1-9.868.909Z" transform="translate(-453.281 -323.87)" fill="#ffb8b8"/><path d="M583.838,421.265l17.483-23.311-9.015-19.318.655-22.911,7.391-1.366.078.039a18.606,18.606,0,0,1,7.9,9.21c1.642,4.1,5.047,18.07,7.615,29.063a16.983,16.983,0,0,1-4.558,15.968l-21.447,21.447Z" transform="translate(-459.283 -271.717)" fill="#009eaa"/><path d="M443.533,637.163l23.919,5.759a2.05,2.05,0,0,0,2.38-1.111l20.546-54.628a1.683,1.683,0,0,0,0-1.33,1.9,1.9,0,0,0-1.095-1.025L471.3,577.96a2.163,2.163,0,0,0-1.763.1,1.834,1.834,0,0,0-.962,1.177v0l-12.693,48.147-.189.012c-.073,0-7.349.5-10.621,4.427a6.945,6.945,0,0,0-1.541,5.34Z" transform="translate(-392.265 -378.408)" fill="#ccc"/><path d="M604.661,702.315a.521.521,0,0,1-.523.523H346a.523.523,0,1,1,0-1.045H604.138a.521.521,0,0,1,.523.523Z" transform="translate(-345.477 -437.6)" fill="#3f3d56"/><rect width="1.045" height="21.929" transform="translate(68.48 229.17) rotate(-83.955)" fill="#b3b3b3"/><rect width="1.045" height="19.243" transform="translate(66.261 237.693) rotate(-65.776)" fill="#b3b3b3"/><path d="M158.485,419.855,137.8,413l.429-.953,20.684,6.851Z" transform="translate(-65.793 -196.734)" fill="#b3b3b3"/><path d="M162.485,407.99,141.8,398l.429-.953,20.684,9.986Z" transform="translate(-67.703 -189.572)" fill="#b3b3b3"/><rect width="1.045" height="19.614" transform="translate(64.187 245.719) rotate(-49.495)" fill="#b3b3b3"/><rect width="1.045" height="14.499" transform="translate(59.679 249.578) rotate(-24.393)" fill="#b3b3b3"/><path d="M726.927,445.98V207.8c0-3.216.061-6.439,0-9.655,0-.141,0-.281,0-.422a1.569,1.569,0,0,0-3.135,0V435.9c0,3.216-.061,6.439,0,9.655,0,.141,0,.282,0,.422A1.569,1.569,0,0,0,726.927,445.98Z" transform="translate(-526.091 -196.208)" fill="#d2d4da"/><path d="M725.52,278.516H687.9a3.4,3.4,0,0,1-3.4-3.4V229.4a3.4,3.4,0,0,1,3.4-3.4H725.52a3.4,3.4,0,0,1,3.4,3.4V275.12A3.4,3.4,0,0,1,725.52,278.516Z" transform="translate(-507.344 -210.432)" fill="#d2d4da"/></g></svg>