<svg xmlns="http://www.w3.org/2000/svg" width="32" height="32" viewBox="0 0 32 32">
  <g id="Group_10543" data-name="Group 10543" transform="translate(-244 -551)">
    <rect id="Rectangle_2836" data-name="Rectangle 2836" width="32" height="32" rx="5" transform="translate(244 551)" fill="#ff6c40"/>
    <path id="fa-pencil" d="M4.1-12.2l1.028-1.028L2.473-15.881,1.446-14.853v1.208H2.891V-12.2ZM10.007-22.68a.22.22,0,0,0-.248-.248.261.261,0,0,0-.192.079L3.445-16.728a.261.261,0,0,0-.079.192.22.22,0,0,0,.248.248.261.261,0,0,0,.192-.079l6.122-6.122A.261.261,0,0,0,10.007-22.68ZM9.4-24.848l4.7,4.7-9.4,9.4H0v-4.7Zm7.714,1.084a1.384,1.384,0,0,1-.418,1.016l-1.875,1.875-4.7-4.7,1.875-1.864a1.342,1.342,0,0,1,1.016-.429,1.4,1.4,0,0,1,1.028.429l2.654,2.643A1.446,1.446,0,0,1,17.111-23.764Z" transform="translate(251 585.863)" fill="#fff"/>
  </g>
</svg>
