<svg xmlns="http://www.w3.org/2000/svg" viewBox="0 0 32 32"><defs><style>.cls-1{fill:#83c5cb;}.cls-2{fill:#fff;}</style></defs><g id="Layer_2" data-name="Layer 2"><g id="Layer_1-2" data-name="Layer 1"><rect id="Rectangle_2836" data-name="Rectangle 2836" class="cls-1" width="32" height="32" rx="5"/><path id="fa-pencil" class="cls-2" d="M11.1,22.66l1-1L9.47,19l-1,1v1.21H9.89v1.44ZM17,12.18a.23.23,0,0,0-.19-.25h-.06a.27.27,0,0,0-.19.08l-6.13,6.12a.25.25,0,0,0-.07.2.2.2,0,0,0,.18.24h.06a.24.24,0,0,0,.2-.07l6.12-6.13A.27.27,0,0,0,17,12.18ZM16.4,10l4.7,4.7-9.4,9.4H7v-4.7Zm7.71,1.09a1.36,1.36,0,0,1-.41,1L21.82,14l-4.7-4.7L19,7.43A1.3,1.3,0,0,1,20,7a1.38,1.38,0,0,1,1,.43l2.65,2.64a1.45,1.45,0,0,1,.42,1Z"/></g></g></svg>