<svg xmlns="http://www.w3.org/2000/svg" xmlns:xlink="http://www.w3.org/1999/xlink" viewBox="0 0 291.1 40.44"><defs><style>.cls-1{fill:#fff;}.cls-2{fill:#14c7de;}.cls-3{fill:url(#linear-gradient);}</style><linearGradient id="linear-gradient" x1="202.64" y1="-11.27" x2="297.71" y2="51.51" gradientUnits="userSpaceOnUse"><stop offset="0" stop-color="#fcbc07"/><stop offset="0.33" stop-color="#fcba07"/><stop offset="0.5" stop-color="#fcb207"/><stop offset="0.63" stop-color="#fca507"/><stop offset="0.74" stop-color="#fc9207"/><stop offset="0.84" stop-color="#fc7906"/><stop offset="0.91" stop-color="#fc6506"/></linearGradient></defs><g id="Layer_2" data-name="Layer 2"><g id="Layer_1-2" data-name="Layer 1"><path class="cls-1" d="M28.59,19.78h6.66V35.44a23.46,23.46,0,0,1-14.84,5C8.66,40.44,0,32,0,20.23S8.66,0,20.52,0c6.34,0,11.64,2.19,15.22,6.4L31.3,10.91A13.82,13.82,0,0,0,20.85,6.42c-8.07,0-13.76,5.67-13.76,13.81,0,8,5.69,13.81,13.7,13.81a14.89,14.89,0,0,0,7.8-2Z"/><path class="cls-1" d="M44.4,25.06c0-9,6.5-15.33,15.38-15.33s15.43,6.34,15.43,15.33S68.76,40.44,59.78,40.44,44.4,34,44.4,25.06Zm24,0c0-5.73-3.68-9.38-8.6-9.38s-8.56,3.65-8.56,9.38,3.68,9.37,8.56,9.37S68.38,30.78,68.38,25.06Z"/><path class="cls-1" d="M110.33,40.44l-8-11.82c-.5.05-1,.05-1.5.05H92.09V40.44H84.86V.07h16c10.23,0,16.57,5.42,16.57,14.36,0,6.11-3,10.61-8.29,12.74l9,13.27Zm-9.79-34H92.09V22.5h8.45c6.34,0,9.62-3,9.62-8.07S106.88,6.41,100.54,6.41Z"/><path class="cls-1" d="M141.26,20.23C141.26,8.5,149.93,0,161.57,0c6.17,0,11.47,2.3,15,6.57L172,11a13.1,13.1,0,0,0-10.13-4.6c-7.85,0-13.54,5.72-13.54,13.81S154,34,161.89,34A13,13,0,0,0,172,29.38l4.54,4.49c-3.52,4.27-8.82,6.57-15.05,6.57C149.93,40.44,141.26,32,141.26,20.23Z"/><path class="cls-2" d="M220.3,24.76A14.94,14.94,0,0,1,208.47.7,20.21,20.21,0,1,0,223,24.51,15.29,15.29,0,0,1,220.3,24.76Z"/><path class="cls-3" d="M277.42,24.13H228.26a25,25,0,0,1-5.7,12.41v0H291C292.55,8.59,276.61.44,265.68.13c-10.51-.3-40.94,0-40.94,0v0c4.92,2.65,10.67,7.72,11.4,12.42,0,0,20.94-.2,27.92,0C268.47,12.7,276.48,13.72,277.42,24.13Z"/><rect class="cls-1" x="127.1" y="0.02" width="6.77" height="40.42"/></g></g></svg>