<svg xmlns="http://www.w3.org/2000/svg" xmlns:xlink="http://www.w3.org/1999/xlink" viewBox="0 0 361.03 156.58"><defs><style>.cls-1{fill:#fff;}.cls-2{fill:#14c7de;}.cls-3{fill:url(#linear-gradient);}</style><linearGradient id="linear-gradient" x1="237.6" y1="46.8" x2="332.67" y2="109.59" gradientUnits="userSpaceOnUse"><stop offset="0" stop-color="#fcbc07"/><stop offset="0.33" stop-color="#fcba07"/><stop offset="0.5" stop-color="#fcb207"/><stop offset="0.63" stop-color="#fca507"/><stop offset="0.74" stop-color="#fc9207"/><stop offset="0.84" stop-color="#fc7906"/><stop offset="0.91" stop-color="#fc6506"/></linearGradient></defs><g id="Layer_2" data-name="Layer 2"><g id="Layer_1-2" data-name="Layer 1"><rect width="361.03" height="156.58"/><path class="cls-1" d="M63.55,77.85h6.66V93.51a23.44,23.44,0,0,1-14.84,5C43.63,98.51,35,90,35,78.3s8.67-20.21,20.52-20.21c6.34,0,11.64,2.19,15.22,6.4L66.26,69a13.82,13.82,0,0,0-10.45-4.49c-8.07,0-13.75,5.67-13.75,13.81,0,8,5.68,13.81,13.69,13.81a14.89,14.89,0,0,0,7.8-2Z"/><path class="cls-1" d="M79.36,83.13c0-9,6.5-15.33,15.38-15.33s15.43,6.34,15.43,15.33-6.44,15.38-15.43,15.38S79.36,92.11,79.36,83.13Zm24,0c0-5.73-3.68-9.38-8.61-9.38s-8.56,3.65-8.56,9.38,3.69,9.37,8.56,9.37S103.35,88.85,103.35,83.13Z"/><path class="cls-1" d="M145.29,98.51l-7.95-11.82c-.5,0-1,0-1.5,0h-8.79V98.51h-7.23V58.14h16c10.23,0,16.57,5.42,16.57,14.36,0,6.11-3,10.61-8.28,12.74l9,13.27Zm-9.79-34h-8.45V80.57h8.45c6.35,0,9.63-3,9.63-8.07S141.85,64.48,135.5,64.48Z"/><path class="cls-1" d="M176.22,78.3c0-11.73,8.67-20.21,20.31-20.21,6.17,0,11.48,2.3,15,6.57L207,69.09a13.12,13.12,0,0,0-10.13-4.6c-7.85,0-13.53,5.73-13.53,13.81S189,92.11,196.85,92.11A13,13,0,0,0,207,87.45l4.55,4.49c-3.52,4.27-8.83,6.57-15.06,6.57C184.89,98.51,176.22,90,176.22,78.3Z"/><path class="cls-2" d="M255.26,82.83a14.94,14.94,0,0,1-11.82-24.06A20.21,20.21,0,1,0,258,82.58,15.2,15.2,0,0,1,255.26,82.83Z"/><path class="cls-3" d="M312.38,82.2H263.23a25,25,0,0,1-5.71,12.41v0H326c1.55-28-14.38-36.12-25.32-36.44-10.5-.3-40.94,0-40.94,0v0c4.92,2.65,10.68,7.72,11.4,12.42,0,0,20.94-.2,27.92,0C303.43,70.77,311.44,71.79,312.38,82.2Z"/><rect class="cls-1" x="162.07" y="58.09" width="6.77" height="40.42"/></g></g></svg>