<svg xmlns="http://www.w3.org/2000/svg" xmlns:xlink="http://www.w3.org/1999/xlink" viewBox="0 0 930.15 306.85"><defs><style>.cls-1{fill:#eed6bf;}.cls-2{fill:#14c7de;}.cls-3{fill:url(#linear-gradient);}</style><linearGradient id="linear-gradient" x1="598.4" y1="79.9" x2="820.43" y2="226.52" gradientUnits="userSpaceOnUse"><stop offset="0" stop-color="#fcbc07"/><stop offset="0.33" stop-color="#fcba07"/><stop offset="0.5" stop-color="#fcb207"/><stop offset="0.63" stop-color="#fca507"/><stop offset="0.74" stop-color="#fc9207"/><stop offset="0.84" stop-color="#fc7906"/><stop offset="0.91" stop-color="#fc6506"/></linearGradient></defs><g id="Layer_2" data-name="Layer 2"><g id="Layer_1-2" data-name="Layer 1"><rect width="930.15" height="306.85"/><path class="cls-1" d="M191.92,152.4h15.55V189c-9.23,7.73-22.13,11.67-34.65,11.67-27.44,0-47.67-19.8-47.67-47.2s20.23-47.2,47.93-47.2c14.79,0,27.18,5.12,35.53,15l-10.37,10.49c-7-7.21-14.92-10.49-24.41-10.49-18.84,0-32.11,13.24-32.11,32.25,0,18.62,13.27,32.25,32,32.25A34.75,34.75,0,0,0,191.92,181Z"/><path class="cls-1" d="M228.84,164.72c0-21,15.18-35.79,35.91-35.79,21,0,36,14.82,36,35.79s-15.05,35.93-36,35.93C244,200.65,228.84,185.7,228.84,164.72Zm56,0c0-13.37-8.6-21.89-20.11-21.89s-20,8.52-20,21.89,8.6,21.9,20,21.9S284.86,178.1,284.86,164.72Z"/><path class="cls-1" d="M382.82,200.65,364.25,173a31.68,31.68,0,0,1-3.51.13H340.22v27.48H323.33V106.37h37.41c23.9,0,38.71,12.66,38.71,33.54,0,14.27-7,24.78-19.35,29.76l20.91,31ZM360,121.19H340.22v37.57H360c14.81,0,22.47-7,22.47-18.85S374.77,121.19,360,121.19Z"/><path class="cls-1" d="M455.06,153.45c0-27.4,20.23-47.2,47.42-47.2,14.42,0,26.81,5.38,35,15.34L526.88,132a30.57,30.57,0,0,0-23.64-10.75c-18.34,0-31.61,13.37-31.61,32.25s13.27,32.25,31.61,32.25a30.28,30.28,0,0,0,23.64-10.88l10.63,10.49c-8.22,10-20.61,15.34-35.16,15.34C475.29,200.65,455.06,180.85,455.06,153.45Z"/><path class="cls-2" d="M639.65,164A34.87,34.87,0,0,1,612,107.84a47.2,47.2,0,1,0,34,55.6A34.85,34.85,0,0,1,639.65,164Z"/><path class="cls-3" d="M773,162.55H658.25a58.51,58.51,0,0,1-13.32,29v.06H804.76c3.62-65.34-33.6-84.36-59.13-85.09-24.54-.7-95.62,0-95.62,0v.06c11.5,6.19,24.93,18,26.64,29,0,0,48.9-.45,65.19,0C752.15,135.87,770.86,138.24,773,162.55Z"/><rect class="cls-1" x="422" y="106.25" width="15.81" height="94.39"/></g></g></svg>