<svg xmlns="http://www.w3.org/2000/svg" width="32" height="32" viewBox="0 0 32 32">
  <g id="Group_10542" data-name="Group 10542" transform="translate(-1002 -399)">
    <rect id="Rectangle_2839" data-name="Rectangle 2839" width="32" height="32" rx="5" transform="translate(1002 399)" fill="#3476fa"/>
    <path id="fa-exclamation-circle" d="M17.14-6.369V-9.585a.556.556,0,0,0-.152-.4.493.493,0,0,0-.372-.161h-3.25a.535.535,0,0,0-.389.169.535.535,0,0,0-.169.389v3.216a.535.535,0,0,0,.169.389.535.535,0,0,0,.389.169h3.25a.493.493,0,0,0,.372-.161A.556.556,0,0,0,17.14-6.369Zm-.034-5.823.3-10.511a.333.333,0,0,0-.169-.3.63.63,0,0,0-.406-.135H13.111a.63.63,0,0,0-.406.135.332.332,0,0,0-.169.3l.288,10.511a.366.366,0,0,0,.169.3.658.658,0,0,0,.406.127H16.53a.622.622,0,0,0,.4-.127A.428.428,0,0,0,17.106-12.192Z" transform="translate(1003.026 429.477)" fill="#fff"/>
  </g>
</svg>
