<svg xmlns="http://www.w3.org/2000/svg" viewBox="0 0 32 32"><defs><style>.cls-1{fill:#1974d3;}.cls-2{fill:#fff;}</style></defs><g id="Layer_2" data-name="Layer 2"><g id="Layer_1-2" data-name="Layer 1"><rect id="Rectangle_2839" data-name="Rectangle 2839" class="cls-1" width="32" height="32" rx="5"/><path id="fa-exclamation-circle" class="cls-2" d="M18.17,24.11V20.89a.55.55,0,0,0-.16-.4.51.51,0,0,0-.37-.16H14.39a.52.52,0,0,0-.39.17.56.56,0,0,0-.17.39V24.1a.56.56,0,0,0,.17.39.52.52,0,0,0,.39.17h3.25A.44.44,0,0,0,18,24.5.57.57,0,0,0,18.17,24.11Zm0-5.83.3-10.51a.32.32,0,0,0-.17-.3.64.64,0,0,0-.4-.13H14.14a.67.67,0,0,0-.41.13.34.34,0,0,0-.17.3l.29,10.51a.35.35,0,0,0,.17.3.61.61,0,0,0,.41.13h3.13a.6.6,0,0,0,.4-.13A.42.42,0,0,0,18.13,18.28Z"/></g></g></svg>