<svg xmlns="http://www.w3.org/2000/svg" width="84.226" height="49.276" viewBox="0 0 84.226 49.276">
  <g id="Group_8699" data-name="Group 8699" transform="translate(-315.805 -152.931)">
    <g id="accorian-logo" transform="translate(344 152.931)">
      <g id="Group_8696" data-name="Group 8696" transform="translate(0 0)">
        <path id="Path_7275" data-name="Path 7275" d="M27.621,18.469l-8.61-8.61V9.8L10.4,18.469,12.228,20.3l6.782-6.841h0L25.792,20.3Z" transform="translate(-5.387 -4.846)" fill="none"/>
        <path id="Path_7276" data-name="Path 7276" d="M33.61,15.023l-1.828,1.828L25,10.01v5.013l6.782,6.782,6.841-6.782L25,1.4V6.413Z" transform="translate(-11.377 -1.4)" fill="#fff"/>
        <path id="Path_7277" data-name="Path 7277" d="M8.741,21.805l6.782-6.782h0V10.01h0L8.741,16.851,6.913,15.023l8.61-8.669V1.4h0L1.9,15.023Z" transform="translate(-1.9 -1.4)" fill="#fff"/>
      </g>
    </g>
    <path id="Path_7279" data-name="Path 7279" d="M8.993-16.261A7.959,7.959,0,0,0,.805-8.05,7.945,7.945,0,0,0,9.016.138a7.846,7.846,0,0,0,7.843-6.256V-8.924H8.165v2.461h5.52a4.359,4.359,0,0,1-4.554,3.7c-2.99,0-5.014-2.024-5.014-5.29,0-3.2,2-5.244,4.876-5.244a4.037,4.037,0,0,1,3.772,2.07h3.7C15.433-14.444,12.581-16.261,8.993-16.261Zm22.563,9.89A6.3,6.3,0,0,0,25-12.949a6.3,6.3,0,0,0-6.555,6.578A6.237,6.237,0,0,0,24.909.207,6.37,6.37,0,0,0,31.556-6.371Zm-9.844,0c0-2.553,1.541-3.772,3.243-3.772s3.289,1.219,3.289,3.772c0,2.53-1.633,3.772-3.335,3.772C23.184-2.6,21.712-3.841,21.712-6.371Zm20.723-4.692c0,1.449-.805,2.392-2.6,2.392H37.145v-4.715h2.691C41.63-13.386,42.435-12.489,42.435-11.063Zm-8.51-4.991V0h3.22V-6.256h1.518L42.2,0h3.726L42.09-6.509a4.636,4.636,0,0,0,3.657-4.623c0-2.691-1.932-4.922-5.8-4.922ZM48.668,0h3.22V-12.742h-3.22ZM50.3-14.26a1.9,1.9,0,0,0,1.978-1.886A1.9,1.9,0,0,0,50.3-18.032a1.888,1.888,0,0,0-1.978,1.886A1.888,1.888,0,0,0,50.3-14.26ZM54.28-8.05A7.916,7.916,0,0,0,62.422.138a7.538,7.538,0,0,0,7.544-5.2h-3.7A4.031,4.031,0,0,1,62.4-2.737c-2.806,0-4.807-2.07-4.807-5.313,0-3.266,2-5.313,4.807-5.313a4.048,4.048,0,0,1,3.864,2.3h3.7a7.565,7.565,0,0,0-7.544-5.2A7.935,7.935,0,0,0,54.28-8.05ZM85.031-6.371a6.3,6.3,0,0,0-6.555-6.578,6.3,6.3,0,0,0-6.555,6.578A6.237,6.237,0,0,0,78.384.207,6.37,6.37,0,0,0,85.031-6.371Zm-9.844,0c0-2.553,1.541-3.772,3.243-3.772s3.289,1.219,3.289,3.772c0,2.53-1.633,3.772-3.335,3.772C76.659-2.6,75.187-3.841,75.187-6.371Z" transform="translate(315 202)" fill="#fff"/>
  </g>
</svg>
