<svg xmlns="http://www.w3.org/2000/svg" width="11.268" height="9.535" viewBox="0 0 11.268 9.535">
  <path id="noun-folder-4462511" d="M132.468,89.234h-4.988l-.944-1.226a1.308,1.308,0,0,0-1.03-.507H123.8a1.3,1.3,0,0,0-1.3,1.3v6.934a1.3,1.3,0,0,0,1.3,1.3h8.668a1.3,1.3,0,0,0,1.3-1.3v-5.2a1.3,1.3,0,0,0-1.3-1.3Zm.433,1.813a1.287,1.287,0,0,0-.433-.08h-6.934a1.3,1.3,0,0,0-1.3,1.3v3.9H123.8a.433.433,0,0,1-.433-.433V88.8a.433.433,0,0,1,.433-.433h1.707a.429.429,0,0,1,.343.169l1.074,1.4a.434.434,0,0,0,.344.169h5.2a.433.433,0,0,1,.433.433Z" transform="translate(-122.5 -87.5)" fill="#fff"/>
</svg>
