<svg xmlns="http://www.w3.org/2000/svg" xmlns:xlink="http://www.w3.org/1999/xlink" viewBox="0 0 197.46 73.9"><defs><style>.cls-1{fill:#14c7de;}.cls-2{fill:url(#linear-gradient);}</style><linearGradient id="linear-gradient" x1="35.79" y1="-20.59" x2="209.54" y2="94.14" gradientUnits="userSpaceOnUse"><stop offset="0" stop-color="#fcbc07"/><stop offset="0.33" stop-color="#fcba07"/><stop offset="0.5" stop-color="#fcb207"/><stop offset="0.63" stop-color="#fca507"/><stop offset="0.74" stop-color="#fc9207"/><stop offset="0.84" stop-color="#fc7906"/><stop offset="0.91" stop-color="#fc6506"/></linearGradient></defs><g id="Layer_2" data-name="Layer 2"><g id="Layer_1-2" data-name="Layer 1"><path class="cls-1" d="M68.07,45.24a27.29,27.29,0,0,1-21.62-44A36.93,36.93,0,1,0,73,44.78,27.08,27.08,0,0,1,68.07,45.24Z"/><path class="cls-2" d="M172.45,44.09H82.62A45.81,45.81,0,0,1,72.2,66.78v0H197.27C200.1,15.7,171,.81,151,.24c-19.2-.54-74.82,0-74.82,0v0C85.18,5.14,95.69,14.41,97,23c0,0,38.27-.36,51,0C156.1,23.21,170.74,25.07,172.45,44.09Z"/></g></g></svg>