<?xml version="1.0" encoding="UTF-8"?><svg id="Layer_2" xmlns="http://www.w3.org/2000/svg" viewBox="0 0 29.14 29.14"><defs><style>.cls-1{fill:#fff;}.cls-2{fill:#ef5922;stroke:#fff;stroke-miterlimit:10;}.cls-3{opacity:.92;}</style></defs><g id="Layer_1-2"><g><circle class="cls-2" cx="14.57" cy="14.57" r="14.07"/><g class="cls-3"><path class="cls-1" d="M18.09,17.95c-.23,.4-.48,.79-.73,1.15,1.61,.36,2.57,1,2.57,1.48,0,.71-2.13,1.79-5.36,1.79s-5.36-1.08-5.36-1.79c0-.48,.96-1.09,2.57-1.48-.25-.36-.5-.75-.73-1.15-1.84,.48-3.17,1.34-3.17,2.63,0,2.04,3.36,3.11,6.68,3.11s6.68-1.08,6.68-3.11c0-1.29-1.32-2.15-3.17-2.63h0Z"/><path class="cls-1" d="M15.17,20.04c1.36-2.02,4.63-7.07,4.63-9.35,0-2.9-2.34-5.24-5.22-5.24s-5.24,2.34-5.24,5.24c0,2.28,3.28,7.33,4.65,9.35,.29,.4,.9,.4,1.19,0h0Zm-3.03-9.35c0-1.34,1.09-2.44,2.44-2.44s2.44,1.09,2.44,2.44-1.09,2.42-2.44,2.42-2.44-1.09-2.44-2.42Z"/></g></g></g></svg>