<?xml version="1.0" encoding="UTF-8"?><svg id="Layer_2" xmlns="http://www.w3.org/2000/svg" viewBox="0 0 29.14 29.14"><defs><style>.cls-1{fill:#fff;}.cls-2{fill:#ef5922;stroke:#fff;stroke-miterlimit:10;}</style></defs><g id="Layer_1-2"><g><circle class="cls-2" cx="14.57" cy="14.57" r="14.07"/><path class="cls-1" d="M10.28,23.83c-.21-.08-.41-.17-.6-.28-.32-.24-.5-.62-.49-1.02V6.7c-.02-.35,.09-.69,.31-.95,.15-.17,.34-.3,.56-.37l.19-.06h8.61c.21,.08,.41,.17,.6,.28,.33,.24,.51,.62,.49,1.03v15.83c.02,.35-.1,.7-.33,.97-.18,.19-.41,.33-.66,.39l-.1,.03H10.28ZM19.07,7.31H10.07v14.21h9.01V7.31Zm-5.13,15.28c0,.17,.07,.32,.19,.44,.12,.12,.28,.18,.44,.18,.17,0,.32-.07,.44-.18,.12-.12,.18-.28,.18-.44,0-.17-.07-.32-.18-.44-.12-.12-.28-.18-.44-.18-.17,0-.33,.07-.44,.19-.12,.12-.18,.28-.18,.44h0Zm.61-16.06h1.26c.11,0,.22-.01,.22-.15,0-.14-.1-.16-.22-.16h-2.5c-.11,0-.22,.03-.22,.16,0,.14,.11,.15,.22,.15h1.23Z"/></g></g></svg>