<?xml version="1.0" encoding="UTF-8"?><svg id="Layer_2" xmlns="http://www.w3.org/2000/svg" viewBox="0 0 29.14 29.14"><defs><style>.cls-1{fill:#fff;}.cls-2{fill:#ef5922;stroke:#fff;stroke-miterlimit:10;}.cls-3{opacity:.92;}</style></defs><g id="Layer_1-2"><g><circle class="cls-2" cx="14.57" cy="14.57" r="14.07"/><g class="cls-3"><path class="cls-1" d="M22.26,7.74H6.89c-.58,0-1.13,.23-1.54,.64-.41,.41-.64,.96-.64,1.54v9.31c0,.58,.23,1.13,.64,1.54,.41,.41,.96,.64,1.54,.64h15.37c.58,0,1.13-.23,1.54-.64,.41-.41,.64-.96,.64-1.54V9.92c0-.58-.23-1.13-.64-1.54-.41-.41-.96-.64-1.54-.64h0Zm-4.66,6.69l5.6-4.66s.01,.1,.01,.15v9.31h0l-5.61-4.79Zm-11.65,4.8h0V9.92s0-.1,.01-.15l5.6,4.66-5.61,4.8Zm.98-10.26h15.29l-6.98,5.82c-.19,.16-.42,.25-.67,.25s-.48-.09-.67-.25l-6.98-5.82Zm-.04,11.19h0s-.08,0-.13,0l5.75-4.92,.6,.5h0c.41,.34,.92,.53,1.45,.53s1.05-.19,1.45-.53l.6-.5,5.75,4.92s-.08,0-.13,0H6.89Z"/></g></g></g></svg>