<svg xmlns="http://www.w3.org/2000/svg" width="95.546" height="17.967" viewBox="0 0 95.546 17.967">
  <g id="Group_8698" data-name="Group 8698" transform="translate(-288 -70)">
    <g id="accorian-logo" transform="translate(288 70)">
      <g id="Group_8696" data-name="Group 8696" transform="translate(0 0)">
        <path id="Path_7275" data-name="Path 7275" d="M25.563,17.433,17.982,9.852V9.8L10.4,17.433l1.61,1.61,5.972-6.024h0l5.972,6.024Z" transform="translate(-5.986 -5.438)" fill="none"/>
        <path id="Path_7276" data-name="Path 7276" d="M32.582,13.4l-1.61,1.61L25,8.982V13.4l5.972,5.972L37,13.4,25,1.4V5.814Z" transform="translate(-13.005 -1.4)" fill="#db344c"/>
        <path id="Path_7277" data-name="Path 7277" d="M7.924,19.367,13.9,13.4h0V8.982h0L7.924,15.005,6.314,13.4,13.9,5.762V1.4h0l-12,12Z" transform="translate(-1.9 -1.4)" fill="#1c204d"/>
      </g>
    </g>
    <path id="Path_7278" data-name="Path 7278" d="M7.038-12.726A6.228,6.228,0,0,0,.63-6.3,6.218,6.218,0,0,0,7.056.108a6.14,6.14,0,0,0,6.138-4.9v-2.2H6.39v1.926h4.32a3.411,3.411,0,0,1-3.564,2.9A3.784,3.784,0,0,1,3.222-6.3c0-2.5,1.566-4.1,3.816-4.1A3.159,3.159,0,0,1,9.99-8.784h2.9A5.772,5.772,0,0,0,7.038-12.726ZM24.7-4.986a4.928,4.928,0,0,0-5.13-5.148,4.928,4.928,0,0,0-5.13,5.148A4.881,4.881,0,0,0,19.494.162,4.986,4.986,0,0,0,24.7-4.986Zm-7.7,0c0-2,1.206-2.952,2.538-2.952S22.1-6.984,22.1-4.986a2.654,2.654,0,0,1-2.61,2.952C18.144-2.034,16.992-3.006,16.992-4.986ZM33.21-8.658c0,1.134-.63,1.872-2.034,1.872H29.07v-3.69h2.106C32.58-10.476,33.21-9.774,33.21-8.658Zm-6.66-3.906V0h2.52V-4.9h1.188L33.03,0h2.916L32.94-5.094A3.628,3.628,0,0,0,35.8-8.712c0-2.106-1.512-3.852-4.536-3.852ZM38.088,0h2.52V-9.972h-2.52Zm1.278-11.16a1.488,1.488,0,0,0,1.548-1.476,1.488,1.488,0,0,0-1.548-1.476,1.478,1.478,0,0,0-1.548,1.476A1.478,1.478,0,0,0,39.366-11.16ZM42.48-6.3A6.2,6.2,0,0,0,48.852.108a5.9,5.9,0,0,0,5.9-4.068h-2.9a3.154,3.154,0,0,1-3.024,1.818c-2.2,0-3.762-1.62-3.762-4.158,0-2.556,1.566-4.158,3.762-4.158a3.168,3.168,0,0,1,3.024,1.8h2.9a5.921,5.921,0,0,0-5.9-4.068A6.21,6.21,0,0,0,42.48-6.3ZM66.546-4.986a4.928,4.928,0,0,0-5.13-5.148,4.928,4.928,0,0,0-5.13,5.148A4.881,4.881,0,0,0,61.344.162,4.986,4.986,0,0,0,66.546-4.986Zm-7.7,0c0-2,1.206-2.952,2.538-2.952s2.574.954,2.574,2.952a2.654,2.654,0,0,1-2.61,2.952C59.994-2.034,58.842-3.006,58.842-4.986Z" transform="translate(317 85)" fill="#db344c"/>
  </g>
</svg>
