<?xml version="1.0" encoding="UTF-8"?><svg id="Layer_2" xmlns="http://www.w3.org/2000/svg" xmlns:xlink="http://www.w3.org/1999/xlink" viewBox="0 0 132.78 182.93"><defs><style>.cls-1{fill:#fff;}.cls-2{fill:#39b54a;}.cls-3{clip-path:url(#clippath);}.cls-4{fill:#0a7712;opacity:.54;}.cls-5{fill:none;}</style><clipPath id="clippath"><rect class="cls-5" width="68.79" height="182.93"/></clipPath></defs><g id="Layer_1-2"><g><path class="cls-2" d="M113.54,31.68C87.88,6.02,46.29,6.02,20.64,31.68c-25.65,25.65-25.65,67.25,0,92.9,5.46,5.46,11.65,9.75,18.25,12.89v.02l29.67,28.49,27.3-28.77v-.02c6.38-3.11,12.38-7.3,17.68-12.6,25.65-25.65,25.65-67.25,0-92.9Z"/><g class="cls-3"><path class="cls-2" d="M115.24,31.68C89.59,6.02,47.99,6.02,22.34,31.68-3.32,57.33-3.32,98.92,22.34,124.58c5.46,5.46,11.65,9.75,18.25,12.89v.02l29.67,28.49,27.3-28.77v-.02c6.38-3.11,12.38-7.3,17.68-12.6,25.65-25.65,25.65-67.25,0-92.9Z"/><path class="cls-4" d="M113.91,31.68C88.25,6.02,46.66,6.02,21.01,31.68c-25.65,25.65-25.65,67.25,0,92.9,5.46,5.46,11.65,9.75,18.25,12.89v.02l29.67,28.49,27.3-28.77v-.02c6.38-3.11,12.38-7.3,17.68-12.6,25.65-25.65,25.65-67.25,0-92.9Z"/></g><g><path class="cls-1" d="M84.61,62.11c-.21-.43-.81-.37-1.85,.38-5.97,4.28-13.53,13.8-15.23,15.98-1.27-2.83-2.84-4.27-4.69-4.27-1.67,0-3.16,1.23-3.93,2.28-.21,.28-.26,.53-.15,.75,.08,.16,.29,.36,.83,.28,2.4-.35,3.56,2.44,5.59,7.29,.3,.71,.61,1.47,.95,2.26,.15,.35,.4,.56,.7,.56,.16,0,.45-.06,.69-.46,1.81-2.98,11.19-16.7,16.4-23.38,.82-1.05,.79-1.44,.68-1.67h0Z"/><path class="cls-1" d="M84.61,62.11c-.21-.43-.81-.37-1.85,.38-5.97,4.28-13.53,13.8-15.23,15.98-1.27-2.83-2.84-4.27-4.69-4.27-1.67,0-3.16,1.23-3.93,2.28-.21,.28-.26,.53-.15,.75,.08,.16,.29,.36,.83,.28,2.4-.35,3.56,2.44,5.59,7.29,.3,.71,.61,1.47,.95,2.26,.15,.35,.4,.56,.7,.56,.16,0,.45-.06,.69-.46,1.81-2.98,11.19-16.7,16.4-23.38,.82-1.05,.79-1.44,.68-1.67h0Z"/><path class="cls-1" d="M67.09,97.41c-9.93,0-18-8.07-18-18s8.07-18,18-18c2.43,0,4.79,.48,7.01,1.42,.98,.42,1.44,1.55,1.02,2.53-.41,.98-1.54,1.44-2.53,1.02-1.74-.74-3.59-1.11-5.51-1.11-7.8,0-14.15,6.35-14.15,14.15s6.35,14.15,14.15,14.15,14.15-6.35,14.15-14.15c0-1.65-.28-3.26-.83-4.79-.36-1,.16-2.1,1.16-2.46,1-.36,2.1,.16,2.46,1.16,.7,1.95,1.06,4,1.06,6.1,0,9.93-8.07,18-18,18h0Z"/></g></g></g></svg>