<?xml version="1.0" encoding="UTF-8"?><svg id="Layer_2" xmlns="http://www.w3.org/2000/svg" xmlns:xlink="http://www.w3.org/1999/xlink" viewBox="0 0 133.15 182.93"><defs><style>.cls-1{fill:#fff;}.cls-2{fill:#9e1907;opacity:.54;}.cls-3{fill:#c42f16;}.cls-4{clip-path:url(#clippath);}.cls-5{fill:none;}</style><clipPath id="clippath"><rect class="cls-5" width="68.79" height="182.93"/></clipPath></defs><g id="Layer_1-2"><g><g><path class="cls-3" d="M113.91,31.68C88.25,6.02,46.66,6.02,21.01,31.68c-25.65,25.65-25.65,67.25,0,92.9,5.46,5.46,11.65,9.75,18.25,12.89v.02l29.67,28.49,27.3-28.77v-.02c6.38-3.11,12.38-7.3,17.68-12.6,25.65-25.65,25.65-67.25,0-92.9Z"/><g class="cls-4"><path class="cls-2" d="M113.91,31.68C88.25,6.02,46.66,6.02,21.01,31.68c-25.65,25.65-25.65,67.25,0,92.9,5.46,5.46,11.65,9.75,18.25,12.89v.02l29.67,28.49,27.3-28.77v-.02c6.38-3.11,12.38-7.3,17.68-12.6,25.65-25.65,25.65-67.25,0-92.9Z"/></g></g><path class="cls-1" d="M66.58,61.41c-9.94,0-18,8.06-18,18s8.06,18,18,18,18-8.06,18-18-8.06-18-18-18h0Zm-5.52,10.01c.67,0,1.31,.27,1.77,.75l3.75,3.75,3.75-3.75c.45-.46,1.06-.73,1.7-.75,.67-.02,1.32,.23,1.8,.7,.48,.47,.75,1.11,.75,1.77,0,.67-.27,1.31-.75,1.77l-3.75,3.75,3.75,3.75c.48,.46,.75,1.09,.75,1.76,0,.66-.26,1.3-.72,1.77-.47,.47-1.11,.73-1.77,.72-.66,0-1.3-.28-1.76-.75l-3.75-3.75-3.75,3.75c-.46,.48-1.09,.75-1.76,.75-.66,0-1.3-.26-1.77-.72-.47-.47-.73-1.11-.72-1.77,0-.66,.28-1.3,.75-1.76l3.75-3.75-3.75-3.75c-.47-.46-.74-1.09-.75-1.75,0-.66,.25-1.29,.72-1.76,.46-.47,1.1-.73,1.76-.73h0Z"/></g></g></svg>